ply
format ascii 1.0
comment UTC time at start 1563850853.87663292884826660
comment Local time at start Mon Jul 22 23:00:53 2019 EDT
comment bag_file test_bag.bag
comment fixed_frame test_fixed_frame
comment moving_frame test_moving_frame
comment orientation_type RPY
element vertex 86
property float x
property float y
property float z
property float roll
property float pitch
property float yaw
property float time
property float scalar_confidence_metric
end_header
0.004724 -0.016513 0.007737 0.005180 -0.002023 0.003371 0.000000 1.000000
0.004380 -0.018070 0.009105 0.005257 -0.001971 0.003706 0.100861 1.000000
0.006764 -0.018191 0.005005 0.004882 -0.001543 0.004032 0.201739 1.000000
0.007834 -0.018077 0.004890 0.005166 -0.002106 0.004017 0.302598 1.000000
0.007888 -0.016359 0.004562 0.005287 -0.002373 0.004295 0.403459 1.000000
0.008497 -0.015803 0.004763 0.005486 -0.002538 0.004717 0.504318 1.000000
0.007846 -0.017702 0.003350 0.005342 -0.002595 0.004484 0.605178 1.000000
0.007596 -0.017597 0.003696 0.005527 -0.002720 0.004105 0.706037 1.000000
0.007877 -0.018263 0.005298 0.005643 -0.002781 0.004406 0.806898 1.000000
0.006817 -0.019339 0.004668 0.005467 -0.002698 0.004030 0.907757 1.000000
0.005993 -0.017906 0.006721 0.005561 -0.002671 0.004254 1.008618 1.000000
0.009883 -0.019396 0.002601 0.005801 -0.003494 0.004412 1.109477 1.000000
0.011288 -0.018643 0.001708 0.006081 -0.003507 0.004537 1.210354 1.000000
0.010616 -0.018005 0.004742 0.005878 -0.003344 0.004423 1.311215 1.000000
0.011785 -0.020573 0.008203 0.005971 -0.003039 0.004886 1.412074 1.000000
0.014140 -0.019768 0.005483 0.005924 -0.003089 0.004781 1.512935 1.000000
0.011404 -0.018426 0.008154 0.005700 -0.002756 0.004730 1.613794 1.000000
0.012280 -0.020119 0.007306 0.005893 -0.002884 0.005003 1.714653 1.000000
0.010080 -0.016834 0.009428 0.005750 -0.002701 0.004657 1.815514 1.000000
0.010947 -0.018386 0.007720 0.006355 -0.003495 0.004568 1.916373 1.000000
0.011733 -0.018292 0.009143 0.006475 -0.003255 0.004778 2.017234 1.000000
0.011373 -0.018172 0.007679 0.006019 -0.003493 0.004964 2.118093 1.000000
0.012780 -0.017021 0.008638 0.006227 -0.003590 0.004903 2.218971 1.000000
0.012743 -0.014841 0.003953 0.006497 -0.004280 0.004576 2.319832 1.000000
0.012406 -0.016765 0.006202 0.006415 -0.004032 0.005093 2.420691 1.000000
0.012780 -0.018522 0.004519 0.006491 -0.004785 0.005021 2.521552 1.000000
0.011493 -0.018656 0.005432 0.006533 -0.004291 0.004832 2.622411 1.000000
0.011230 -0.016014 0.002673 0.006511 -0.004339 0.005039 2.723271 1.000000
0.011216 -0.017970 0.004743 0.006631 -0.004351 0.004983 2.824130 1.000000
0.011470 -0.017339 0.005269 0.006507 -0.004214 0.005076 2.924991 1.000000
0.010951 -0.019265 0.003477 0.006749 -0.004272 0.005206 3.025850 1.000000
0.012098 -0.019383 0.003185 0.006889 -0.004522 0.004995 3.126727 1.000000
0.010823 -0.018664 0.006488 0.006831 -0.004231 0.005371 3.227588 1.000000
0.009559 -0.019561 0.008463 0.006849 -0.004403 0.005142 3.328447 1.000000
0.010699 -0.018534 0.008107 0.006945 -0.004351 0.005225 3.429308 1.000000
0.007922 -0.019878 0.004083 0.007102 -0.004840 0.004971 3.530167 1.000000
0.010893 -0.018449 0.003704 0.007199 -0.004881 0.005201 3.631028 1.000000
0.011444 -0.021002 0.003877 0.006948 -0.004816 0.005445 3.731887 1.000000
0.010413 -0.019711 0.006137 0.007254 -0.004553 0.005157 3.832746 1.000000
0.011151 -0.020904 0.003289 0.007164 -0.004539 0.005398 3.933607 1.000000
0.008498 -0.020006 0.005144 0.006974 -0.003930 0.005206 4.034466 1.000000
0.009103 -0.021644 0.004605 0.007201 -0.004636 0.005210 4.135343 1.000000
0.008672 -0.022362 0.003602 0.007456 -0.004523 0.005223 4.236204 1.000000
0.010161 -0.022958 0.003933 0.007256 -0.004228 0.005722 4.337063 1.000000
0.009556 -0.023720 0.004666 0.007444 -0.004374 0.005500 4.437924 1.000000
0.010377 -0.022427 0.005448 0.007265 -0.004397 0.005594 4.538783 1.000000
0.009252 -0.021304 0.007275 0.007319 -0.004291 0.005209 4.639644 1.000000
0.010012 -0.022427 0.007922 0.007188 -0.004490 0.005405 4.740503 1.000000
0.010069 -0.023239 0.007093 0.006871 -0.003984 0.005538 4.841364 1.000000
0.010583 -0.021253 0.008748 0.006985 -0.003900 0.005496 4.942223 1.000000
0.010932 -0.020626 0.006776 0.007451 -0.004090 0.005273 5.043082 1.000000
0.012652 -0.021809 0.007438 0.007098 -0.004163 0.005798 5.143960 1.000000
0.011288 -0.019448 0.005146 0.007400 -0.004413 0.005437 5.244821 1.000000
0.012417 -0.021338 0.004272 0.007296 -0.004274 0.005387 5.345680 1.000000
0.012847 -0.022050 0.005056 0.007179 -0.004722 0.005550 5.446541 1.000000
0.012617 -0.022856 0.006668 0.006996 -0.004083 0.005412 5.547401 1.000000
0.012911 -0.023013 0.004764 0.007092 -0.004428 0.005865 5.648260 1.000000
0.011087 -0.022741 0.004351 0.007076 -0.004398 0.005415 5.749121 1.000000
0.014446 -0.022862 0.006278 0.007335 -0.004418 0.005703 5.849980 1.000000
0.011658 -0.021796 0.007900 0.007321 -0.004175 0.005225 5.950841 1.000000
0.010320 -0.022365 0.004534 0.007279 -0.004177 0.005331 6.051700 1.000000
0.011955 -0.023432 0.008853 0.007207 -0.003682 0.005612 6.152577 1.000000
0.012461 -0.024583 0.009723 0.007291 -0.003989 0.005529 6.253436 1.000000
0.012739 -0.021556 0.007584 0.007093 -0.004118 0.005686 6.354297 1.000000
0.011449 -0.022836 0.011444 0.006807 -0.003653 0.005588 6.455156 1.000000
0.013121 -0.023873 0.009253 0.007112 -0.004029 0.005654 6.556017 1.000000
0.012678 -0.023461 0.009258 0.006949 -0.003872 0.005368 6.656876 1.000000
0.013293 -0.023236 0.008571 0.006839 -0.004119 0.005636 6.757737 1.000000
0.011200 -0.023831 0.010373 0.006636 -0.003813 0.005322 6.858596 1.000000
0.011591 -0.023962 0.010052 0.006781 -0.003832 0.005341 6.959457 1.000000
0.011474 -0.024318 0.009100 0.006898 -0.003945 0.005307 7.060316 1.000000
0.012879 -0.026105 0.011585 0.006904 -0.003574 0.005942 7.161193 1.000000
0.012589 -0.025821 0.012574 0.006896 -0.003615 0.005630 7.262052 1.000000
0.011019 -0.023949 0.010232 0.006794 -0.003881 0.005430 7.362913 1.000000
0.012881 -0.026360 0.011277 0.007085 -0.003827 0.005614 7.463772 1.000000
0.012916 -0.025353 0.008175 0.007114 -0.004160 0.005683 7.564633 1.000000
0.013602 -0.024451 0.008138 0.007017 -0.004233 0.006128 7.665492 1.000000
0.014233 -0.024462 0.010261 0.007002 -0.003879 0.005932 7.766353 1.000000
0.012884 -0.023860 0.010387 0.006918 -0.003886 0.005861 7.867212 1.000000
0.014552 -0.025554 0.009745 0.007136 -0.004061 0.005998 7.968073 1.000000
0.015084 -0.024760 0.009101 0.007263 -0.004389 0.005729 8.068932 1.000000
0.014023 -0.026016 0.010749 0.007284 -0.004076 0.005799 8.169810 1.000000
0.014107 -0.025179 0.008839 0.007314 -0.004186 0.005575 8.270670 1.000000
0.013791 -0.024268 0.011101 0.007541 -0.004284 0.005522 8.371529 1.000000
0.013200 -0.024697 0.011925 0.007224 -0.004051 0.005399 8.472390 1.000000
0.011676 -0.024288 0.011766 0.007147 -0.003874 0.005102 8.573249 1.000000
