ply
format ascii 1.0
comment UTC time at start 1563850853.87663292884826660
comment Local time at start Mon Jul 22 23:00:53 2019 EDT
comment bag_file: test_bag.bag
comment fixed_frame: test_fixed_frame
comment moving_frame: test_moving_frame
comment orientation_type quaternion
element vertex 86
property float x
property float y
property float z
property float qw
property float qx
property float qy
property float qz
property float time_nsec
end_header
0.0047240 -0.0165130 0.0077370 0.9999947 0.0025883 -0.0010159 0.0016829 0.00000000000000000 
0.0043800 -0.0180700 0.0091050 0.9999943 0.0026267 -0.0009904 0.0018504 100861072.00000000000000000 
0.0067640 -0.0181910 0.0050050 0.9999947 0.0024394 -0.0007764 0.0020141 201739073.00000000000000000 
0.0078340 -0.0180770 0.0048900 0.9999941 0.0025809 -0.0010582 0.0020058 302597999.00000000000000000 
0.0078880 -0.0163590 0.0045620 0.9999935 0.0026409 -0.0011922 0.0021444 403459072.00000000000000000 
0.0084970 -0.0158030 0.0047630 0.9999927 0.0027400 -0.0012755 0.0023550 504317999.00000000000000000 
0.0078460 -0.0177020 0.0033500 0.9999931 0.0026681 -0.0013035 0.0022385 605178118.00000000000000000 
0.0075960 -0.0175970 0.0036960 0.9999932 0.0027607 -0.0013657 0.0020487 706037044.00000000000000000 
0.0078770 -0.0182630 0.0052980 0.9999926 0.0028184 -0.0013967 0.0021991 806897878.00000000000000000 
0.0068170 -0.0193390 0.0046680 0.9999933 0.0027308 -0.0013545 0.0020113 907757044.00000000000000000 
0.0059930 -0.0179060 0.0067210 0.9999930 0.0027776 -0.0013414 0.0021233 1008618116.00000000000000000 
0.0098830 -0.0193960 0.0026010 0.9999918 0.0028966 -0.0017534 0.0022009 1109477043.00000000000000000 
0.0112880 -0.0186430 0.0017080 0.9999913 0.0030365 -0.0017604 0.0022632 1210354090.00000000000000000 
0.0106160 -0.0180050 0.0047420 0.9999918 0.0029353 -0.0016785 0.0022066 1311215162.00000000000000000 
0.0117850 -0.0205730 0.0082030 0.9999914 0.0029818 -0.0015268 0.0024384 1412073850.00000000000000000 
0.0141400 -0.0197680 0.0054830 0.9999916 0.0029583 -0.0015516 0.0023859 1512934923.00000000000000000 
0.0114040 -0.0184260 0.0081540 0.9999922 0.0028467 -0.0013847 0.0023611 1613794088.00000000000000000 
0.0122800 -0.0201190 0.0073060 0.9999915 0.0029429 -0.0014494 0.0024972 1714653015.00000000000000000 
0.0100800 -0.0168340 0.0094280 0.9999923 0.0028718 -0.0013572 0.0023246 1815513849.00000000000000000 
0.0109470 -0.0183860 0.0077200 0.9999908 0.0031735 -0.0017547 0.0022784 1916373014.00000000000000000 
0.0117330 -0.0182920 0.0091430 0.9999906 0.0032336 -0.0016352 0.0023837 2017234087.00000000000000000 
0.0113730 -0.0181720 0.0076790 0.9999909 0.0030051 -0.0017540 0.0024767 2118093014.00000000000000000 
0.0127800 -0.0170210 0.0086380 0.9999906 0.0031091 -0.0018026 0.0024459 2218971014.00000000000000000 
0.0127430 -0.0148410 0.0039530 0.9999898 0.0032436 -0.0021474 0.0022810 2319832086.00000000000000000 
0.0124060 -0.0167650 0.0062020 0.9999896 0.0032023 -0.0020241 0.0025400 2420691013.00000000000000000 
0.0127800 -0.0185220 0.0045190 0.9999887 0.0032395 -0.0024006 0.0025027 2521552086.00000000000000000 
0.0114930 -0.0186560 0.0054320 0.9999895 0.0032613 -0.0021534 0.0024090 2622411012.00000000000000000 
0.0112300 -0.0160140 0.0026730 0.9999892 0.0032500 -0.0021777 0.0025124 2723270893.00000000000000000 
0.0112160 -0.0179700 0.0047430 0.9999891 0.0033101 -0.0021837 0.0024843 2824130058.00000000000000000 
0.0114700 -0.0173390 0.0052690 0.9999893 0.0032481 -0.0021152 0.0025311 2924990892.00000000000000000 
0.0109510 -0.0192650 0.0034770 0.9999887 0.0033689 -0.0021448 0.0025958 3025850057.00000000000000000 
0.0120980 -0.0193830 0.0031850 0.9999884 0.0034388 -0.0022696 0.0024897 3126727104.00000000000000000 
0.0108230 -0.0186640 0.0064880 0.9999883 0.0034098 -0.0021247 0.0026782 3227587938.00000000000000000 
0.0095590 -0.0195610 0.0084630 0.9999884 0.0034188 -0.0022103 0.0025634 3328447103.00000000000000000 
0.0106990 -0.0185340 0.0081070 0.9999882 0.0034668 -0.0021845 0.0026049 3429307937.00000000000000000 
0.0079220 -0.0198780 0.0040830 0.9999877 0.0035450 -0.0024288 0.0024769 3530167103.00000000000000000 
0.0108930 -0.0184490 0.0037040 0.9999872 0.0035931 -0.0024498 0.0025917 3631027937.00000000000000000 
0.0114440 -0.0210020 0.0038770 0.9999874 0.0034674 -0.0024174 0.0027141 3731887102.00000000000000000 
0.0104130 -0.0197110 0.0061370 0.9999875 0.0036211 -0.0022858 0.0025702 3832746029.00000000000000000 
0.0111510 -0.0209040 0.0032890 0.9999874 0.0035758 -0.0022791 0.0026908 3933607101.00000000000000000 
0.0084980 -0.0200060 0.0051440 0.9999886 0.0034819 -0.0019741 0.0025961 4034465790.00000000000000000 
0.0091030 -0.0216440 0.0046050 0.9999875 0.0035944 -0.0023274 0.0025966 4135343075.00000000000000000 
0.0086720 -0.0223620 0.0036020 0.9999871 0.0037221 -0.0022712 0.0026030 4236204147.00000000000000000 
0.0101610 -0.0229580 0.0039330 0.9999871 0.0036219 -0.0021244 0.0028533 4337062836.00000000000000000 
0.0095560 -0.0237200 0.0046660 0.9999869 0.0037160 -0.0021972 0.0027418 4437923908.00000000000000000 
0.0103770 -0.0224270 0.0054480 0.9999871 0.0036263 -0.0022086 0.0027890 4538783073.00000000000000000 
0.0092520 -0.0213040 0.0072750 0.9999876 0.0036539 -0.0021550 0.0025966 4639644146.00000000000000000 
0.0100120 -0.0224270 0.0079220 0.9999874 0.0035879 -0.0022547 0.0026944 4740502834.00000000000000000 
0.0100690 -0.0232390 0.0070930 0.9999883 0.0034300 -0.0020015 0.0027621 4841363907.00000000000000000 
0.0105830 -0.0212530 0.0087480 0.9999882 0.0034871 -0.0019596 0.0027412 4942223072.00000000000000000 
0.0109320 -0.0206260 0.0067760 0.9999875 0.0037201 -0.0020548 0.0026289 5043082237.00000000000000000 
0.0126520 -0.0218090 0.0074380 0.9999874 0.0035429 -0.0020918 0.0028916 5143959999.00000000000000000 
0.0112880 -0.0194480 0.0051460 0.9999870 0.0036940 -0.0022165 0.0027103 5244821071.00000000000000000 
0.0124170 -0.0213380 0.0042720 0.9999875 0.0036422 -0.0021468 0.0026857 5345680237.00000000000000000 
0.0128470 -0.0220500 0.0050560 0.9999869 0.0035829 -0.0023709 0.0027665 5446540832.00000000000000000 
0.0126170 -0.0228560 0.0066680 0.9999882 0.0034924 -0.0020509 0.0026988 5547400951.00000000000000000 
0.0129110 -0.0230130 0.0047640 0.9999870 0.0035395 -0.0022244 0.0029246 5648260116.00000000000000000 
0.0110870 -0.0227410 0.0043510 0.9999877 0.0035320 -0.0022086 0.0026997 5749121189.00000000000000000 
0.0144460 -0.0228620 0.0062780 0.9999868 0.0036612 -0.0022194 0.0028434 5849979877.00000000000000000 
0.0116580 -0.0217960 0.0079000 0.9999877 0.0036550 -0.0020970 0.0026048 5950840950.00000000000000000 
0.0103200 -0.0223650 0.0045340 0.9999877 0.0036339 -0.0020982 0.0026579 6051700115.00000000000000000 
0.0119550 -0.0234320 0.0088530 0.9999879 0.0035983 -0.0018511 0.0027993 6152576923.00000000000000000 
0.0124610 -0.0245830 0.0097230 0.9999876 0.0036400 -0.0020046 0.0027572 6253436088.00000000000000000 
0.0127390 -0.0215560 0.0075840 0.9999876 0.0035406 -0.0020691 0.0028357 6354297161.00000000000000000 
0.0114490 -0.0228360 0.0114440 0.9999887 0.0033984 -0.0018360 0.0027878 6455155849.00000000000000000 
0.0131210 -0.0238730 0.0092530 0.9999877 0.0035503 -0.0020245 0.0028198 6556016922.00000000000000000 
0.0126780 -0.0234610 0.0092580 0.9999885 0.0034693 -0.0019453 0.0026772 6656876087.00000000000000000 
0.0132930 -0.0232360 0.0085710 0.9999881 0.0034137 -0.0020691 0.0028109 6757737160.00000000000000000 
0.0112000 -0.0238310 0.0103730 0.9999892 0.0033129 -0.0019153 0.0026547 6858595848.00000000000000000 
0.0115910 -0.0239620 0.0100520 0.9999889 0.0033854 -0.0019250 0.0026640 6959456920.00000000000000000 
0.0114740 -0.0243180 0.0091000 0.9999886 0.0034437 -0.0019816 0.0026467 7060316086.00000000000000000 
0.0128790 -0.0261050 0.0115850 0.9999881 0.0034467 -0.0017972 0.0029648 7161192894.00000000000000000 
0.0125890 -0.0258210 0.0125740 0.9999885 0.0034429 -0.0018172 0.0028087 7262052059.00000000000000000 
0.0110190 -0.0239490 0.0102320 0.9999887 0.0033917 -0.0019497 0.0027084 7362913132.00000000000000000 
0.0128810 -0.0263600 0.0112770 0.9999880 0.0035371 -0.0019234 0.0028002 7463771820.00000000000000000 
0.0129160 -0.0253530 0.0081750 0.9999875 0.0035511 -0.0020901 0.0028341 7564632892.00000000000000000 
0.0136020 -0.0244510 0.0081380 0.9999869 0.0035020 -0.0021272 0.0030565 7665492058.00000000000000000 
0.0142330 -0.0244620 0.0102610 0.9999876 0.0034952 -0.0019499 0.0029592 7766353130.00000000000000000 
0.0128840 -0.0238600 0.0103870 0.9999879 0.0034533 -0.0019531 0.0029238 7867211819.00000000000000000 
0.0145520 -0.0255540 0.0097450 0.9999871 0.0035619 -0.0020412 0.0029917 7968072891.00000000000000000 
0.0150840 -0.0247600 0.0091010 0.9999869 0.0036252 -0.0022049 0.0028565 8068931579.00000000000000000 
0.0140230 -0.0260160 0.0107490 0.9999871 0.0036361 -0.0020485 0.0028920 8169810295.00000000000000000 
0.0141070 -0.0251790 0.0088390 0.9999873 0.0036511 -0.0021032 0.0027798 8270669937.00000000000000000 
0.0137910 -0.0242680 0.0111010 0.9999868 0.0037646 -0.0021524 0.0027529 8371528625.00000000000000000 
0.0132000 -0.0246970 0.0119250 0.9999878 0.0036065 -0.0020352 0.0026922 8472390175.00000000000000000 
0.0116760 -0.0242880 0.0117660 0.9999885 0.0035685 -0.0019461 0.0025441 8573248863.00000000000000000 
